# Blender v2.92.0 OBJ File: ''
# www.blender.org
mtllib tankbody.mtl
o Tankbody_Tankbody_Cube.003
v -3.791779 -1.276750 1.988755
v -2.815222 -1.039027 1.988754
v -2.815222 -1.039025 4.469130
v -3.791719 -1.276734 4.469130
v -3.781268 0.980029 -0.011246
v -2.815221 0.980029 -0.011246
v -2.815221 0.980029 -2.916640
v -3.781268 0.980029 -2.916640
v -3.781268 0.980029 1.988754
v -2.815221 0.980029 1.988754
v -2.815221 -1.039027 -0.011246
v -3.791771 -1.276748 -0.011245
v -3.791696 -1.276730 -2.916640
v -2.815221 -1.039027 -2.916640
v -0.000362 0.980029 1.988754
v -0.000362 0.980029 -0.011246
v -2.815220 -0.167299 7.142889
v -3.784940 -0.204033 6.950687
v -0.000362 -0.997217 1.988754
v -0.000362 -0.997215 4.469129
v -4.181269 0.580029 1.988754
v -4.181269 -0.297715 1.988754
v -4.181269 -0.297713 4.469130
v -4.181269 0.580031 4.469130
v -4.181270 -0.964710 -2.916640
v -4.181270 -0.297715 -2.916640
v -4.181270 -0.129237 -6.494793
v -4.181270 -0.587409 -5.792710
v -0.000361 0.310767 6.737564
v -0.000361 0.747941 6.123905
v -2.815221 0.747941 6.123905
v -2.815221 0.310767 6.737564
v -4.181269 0.175160 6.232018
v -4.181269 0.580031 5.663952
v -2.815222 0.980027 -6.573894
v -3.781268 0.980027 -6.573894
v -0.000362 0.980029 -2.916640
v -4.181269 0.580029 -0.011246
v -4.181269 -0.297715 -0.011246
v -2.815222 -0.687437 -5.595791
v -2.815222 -0.262016 -6.605288
v -0.000363 -0.252366 -6.601368
v -0.000362 -0.645626 -5.595792
v -2.815222 0.293322 -6.973894
v -2.815222 0.580027 -6.973894
v -0.000363 0.580027 -6.973894
v -0.000363 0.293322 -6.973894
v -3.791554 -0.925105 -5.595791
v -3.783521 -0.327646 -6.640468
v 4.180544 -0.963042 1.988754
v 4.180544 -0.964172 -0.011246
v 4.180544 -0.297715 -0.011246
v 4.180544 -0.297715 1.988754
v -3.781267 0.747941 6.123905
v -3.781267 0.310767 6.737565
v -2.815220 0.122898 7.157992
v -3.783707 0.199881 6.979435
v -4.181269 -0.964172 -0.011245
v -4.181269 -0.961229 4.469130
v -4.181269 0.017968 6.463297
v -0.000361 -0.347369 7.134676
v -3.781269 0.293322 -6.973894
v -3.781269 0.580027 -6.973894
v -4.181270 0.580029 -2.916640
v -4.181270 0.580027 -6.497837
v -0.000361 -0.017109 7.197802
v -4.181269 -0.963042 1.988755
v -0.000362 -0.997217 -2.916640
v -0.000363 0.980027 -6.573894
v -2.815221 0.980031 4.469129
v -3.781267 0.980031 4.469129
v -3.781267 0.980031 5.398122
v -2.815221 0.980031 5.398122
v -0.000362 0.980031 4.469129
v -0.000362 0.980031 5.398122
v -0.000362 -0.997217 -0.011246
v 3.791055 -1.276750 1.988754
v 3.790997 -1.276734 4.469129
v 2.814497 -1.039025 4.469129
v 2.814497 -1.039027 1.988754
v 3.780544 0.980029 -0.011246
v 3.780544 0.980029 -2.916641
v 2.814497 0.980029 -2.916641
v 2.814497 0.980029 -0.011246
v 4.180543 -0.964710 -2.916640
v 4.180543 -0.297715 -2.916640
v 3.780544 0.980029 1.988754
v 2.814497 0.980029 1.988754
v 3.784217 -0.204033 6.950686
v 2.814498 -0.167299 7.142889
v 4.180544 0.580029 1.988754
v 4.180544 0.580031 4.469129
v 4.180544 -0.297713 4.469129
v 4.180543 -0.587409 -5.792710
v 4.180543 -0.129237 -6.494794
v 2.814497 0.980031 5.398121
v 2.814497 0.980031 4.469129
v 4.180544 0.580031 5.663951
v 4.180544 0.175160 6.232017
v 3.780544 0.980027 -6.573895
v 2.814497 0.980027 -6.573895
v 4.180544 -0.961229 4.469129
v 3.790828 -0.925105 -5.595792
v 2.814497 -0.687437 -5.595792
v 2.814497 -0.262016 -6.605288
v 3.782797 -0.327646 -6.640469
v 2.814496 0.293322 -6.973895
v 2.814496 0.580027 -6.973895
v 2.814497 -1.039027 -2.916640
v 3.790972 -1.276730 -2.916640
v 2.814497 -1.039027 -0.011246
v 3.791047 -1.276748 -0.011246
v 2.814497 0.310767 6.737564
v 3.780545 0.310767 6.737564
v 3.780545 0.747941 6.123905
v 2.814497 0.747941 6.123905
v 2.814498 0.122898 7.157991
v 4.180544 0.017968 6.463296
v 3.780543 0.293322 -6.973895
v 3.780543 0.580027 -6.973895
v 4.180543 0.580027 -6.497838
v 4.180543 0.580029 -2.916641
v 4.180544 0.580029 -0.011246
v 3.780545 0.980031 5.398121
v 3.780545 0.980031 4.469129
v 3.782985 0.199881 6.979434
vt 0.351604 0.500000
vt 0.292942 0.500000
vt 0.292942 0.500000
vt 0.351600 0.500000
vt 0.649028 0.750000
vt 0.707058 0.750000
vt 0.707058 0.750000
vt 0.649028 0.750000
vt 0.649028 0.500000
vt 0.707058 0.500000
vt 0.292942 0.750000
vt 0.351603 0.750000
vt 0.351599 0.750000
vt 0.292942 0.750000
vt 0.875000 0.500000
vt 0.875000 0.750000
vt 0.292942 0.500000
vt 0.351287 0.500000
vt 0.125000 0.500000
vt 0.125000 0.500000
vt 0.582476 0.500000
vt 0.489162 0.500000
vt 0.489162 0.500000
vt 0.582476 0.500000
vt 0.418253 0.750000
vt 0.489162 0.750000
vt 0.489162 0.750000
vt 0.432467 0.750000
vt 0.489162 0.250000
vt 0.577894 0.250000
vt 0.577894 0.417942
vt 0.489162 0.417942
vt 0.489162 0.500000
vt 0.565181 0.500000
vt 0.707058 0.750000
vt 0.649028 0.750000
vt 0.875000 0.750000
vt 0.582476 0.750000
vt 0.489162 0.750000
vt 0.375000 0.832058
vt 0.458627 0.832058
vt 0.458302 1.000000
vt 0.375000 1.000000
vt 0.539162 0.832058
vt 0.575000 0.832058
vt 0.575000 1.000000
vt 0.539162 1.000000
vt 0.375000 0.773410
vt 0.460605 0.773740
vt 0.351590 0.750000
vt 0.292942 0.750000
vt 0.418430 0.500000
vt 0.418310 0.750000
vt 0.489162 0.750000
vt 0.489162 0.500000
vt 0.577894 0.475972
vt 0.489162 0.475972
vt 0.428370 0.417942
vt 0.443458 0.476045
vt 0.418310 0.750000
vt 0.418623 0.500000
vt 0.447457 0.500000
vt 0.125000 0.500000
vt 0.539162 0.774028
vt 0.575000 0.774028
vt 0.582476 0.750000
vt 0.576088 0.750000
vt 0.422614 0.250000
vt 0.418430 0.500000
vt 0.125000 0.750000
vt 0.125000 0.750000
vt 0.875000 0.750000
vt 0.707058 0.500000
vt 0.649028 0.500000
vt 0.649028 0.500000
vt 0.707058 0.500000
vt 0.875000 0.500000
vt 0.875000 0.500000
vt 0.125000 0.750000
vt 0.351604 0.500000
vt 0.351600 0.500000
vt 0.292942 0.500000
vt 0.292942 0.500000
vt 0.649028 0.750000
vt 0.649028 0.750000
vt 0.707058 0.750000
vt 0.707058 0.750000
vt 0.418253 0.750000
vt 0.489162 0.750000
vt 0.649028 0.500000
vt 0.707058 0.500000
vt 0.351287 0.500000
vt 0.292942 0.500000
vt 0.582476 0.500000
vt 0.582476 0.500000
vt 0.489162 0.500000
vt 0.432467 0.750000
vt 0.489162 0.750000
vt 0.707058 0.500000
vt 0.707058 0.500000
vt 0.565180 0.500000
vt 0.489162 0.500000
vt 0.649028 0.750000
vt 0.707058 0.750000
vt 0.418623 0.500000
vt 0.375000 0.773410
vt 0.375000 0.832058
vt 0.458627 0.832058
vt 0.460605 0.773740
vt 0.539162 0.832058
vt 0.575000 0.832058
vt 0.292942 0.750000
vt 0.292942 0.750000
vt 0.351590 0.750000
vt 0.351599 0.750000
vt 0.292942 0.750000
vt 0.351603 0.750000
vt 0.489162 0.417942
vt 0.489162 0.475972
vt 0.577894 0.475972
vt 0.577894 0.417942
vt 0.428370 0.417942
vt 0.447457 0.500000
vt 0.539162 0.774028
vt 0.575000 0.774028
vt 0.576088 0.750000
vt 0.582476 0.750000
vt 0.582476 0.750000
vt 0.649028 0.500000
vt 0.649028 0.500000
vt 0.443458 0.476045
vt 0.349820 0.500000
vt 0.375000 0.500000
vt 0.355613 0.500000
vt 0.577894 0.500000
vt 0.625000 0.500000
vt 0.625000 0.500000
vt 0.625000 0.750000
vt 0.575000 0.750000
vt 0.625000 0.750000
vt 0.349820 0.500000
vt 0.355613 0.500000
vt 0.375000 0.500000
vt 0.577894 0.500000
vt 0.625000 0.500000
vt 0.625000 0.500000
vt 0.625000 0.750000
vt 0.625000 0.750000
vt 0.575000 0.750000
vt 0.126037 0.500000
vt 0.292942 0.500000
vt 0.625000 0.417942
vt 0.625000 0.475972
vt 0.625000 0.832058
vt 0.625000 1.000000
vt 0.297766 0.500000
vt 0.355548 0.500000
vt 0.625000 0.250000
vt 0.625000 0.774028
vt 0.292942 0.500000
vt 0.625000 0.475972
vt 0.625000 0.417942
vt 0.625000 0.832058
vt 0.355548 0.500000
vt 0.297766 0.500000
vt 0.625000 0.774028
vn 0.2365 -0.9716 0.0000
vn -0.0000 1.0000 -0.0000
vn 0.0967 -0.9313 0.3511
vn 0.0149 -0.9999 0.0000
vn -1.0000 0.0000 0.0000
vn 0.0000 0.8145 0.5802
vn 0.0087 -0.9264 -0.3764
vn 0.0000 -0.0000 -1.0000
vn 0.1461 -0.8858 -0.4405
vn 0.2346 -0.9638 -0.1265
vn 1.0000 -0.0000 -0.0000
vn -0.0017 0.9116 0.4112
vn -0.0232 -0.9615 0.2740
vn 0.0179 0.8628 0.5053
vn 0.0147 -0.9914 -0.1301
vn -0.2365 -0.9716 0.0000
vn -0.0967 -0.9313 0.3511
vn -0.0149 -0.9999 0.0000
vn -0.1461 -0.8858 -0.4405
vn -0.2346 -0.9638 -0.1265
vn -0.0179 0.8628 0.5053
vn 0.0232 -0.9615 0.2740
vn -0.0087 -0.9264 -0.3764
vn -0.0147 -0.9914 -0.1301
vn 0.0017 0.9116 0.4112
vn -0.7844 -0.0417 0.6189
vn -0.6000 0.7620 0.2437
vn -0.6439 0.5410 -0.5410
vn -0.4874 -0.4117 -0.7700
vn 0.7844 -0.0417 0.6189
vn 0.6000 0.7620 0.2437
vn 0.6439 0.5410 -0.5410
vn 0.4874 -0.4117 -0.7700
vn -0.6260 -0.7798 0.0001
vn -0.6275 -0.7787 0.0003
vn -0.7071 0.7071 -0.0000
vn -0.6283 -0.7779 0.0003
vn -0.0127 -0.1251 0.9921
vn 0.0000 0.9525 0.3046
vn -0.6977 0.6249 0.3504
vn -0.6609 -0.6819 0.3136
vn -0.6255 -0.7802 0.0001
vn -0.4807 -0.7495 -0.4552
vn 0.0000 0.7071 -0.7071
vn -0.6217 -0.7766 -0.1019
vn -0.7104 0.5732 0.4084
vn -0.7662 -0.0020 -0.6426
vn 0.0015 -0.5584 -0.8296
vn -0.0000 -0.5584 -0.8296
vn -0.1888 -0.0616 0.9801
vn 0.0330 -0.5122 -0.8582
vn 0.6260 -0.7798 0.0001
vn 0.6275 -0.7787 0.0003
vn 0.7071 0.7071 -0.0000
vn 0.6283 -0.7779 0.0003
vn 0.0127 -0.1251 0.9921
vn 0.6977 0.6249 0.3504
vn 0.6609 -0.6819 0.3136
vn 0.6255 -0.7802 0.0001
vn 0.4807 -0.7495 -0.4552
vn 0.6217 -0.7766 -0.1019
vn 0.7104 0.5732 0.4084
vn 0.7662 -0.0020 -0.6426
vn -0.0015 -0.5584 -0.8296
vn 0.1888 -0.0616 0.9801
vn -0.0330 -0.5122 -0.8582
usemtl None.001
s 1
f 1/1/1 2/2/1 3/3/1 4/4/1
f 5/5/2 6/6/2 7/7/2 8/8/2
f 9/9/2 10/10/2 6/6/2 5/5/2
f 11/11/1 12/12/1 13/13/1 14/14/1
f 10/10/2 15/15/2 16/16/2 6/6/2
f 4/4/3 3/3/3 17/17/3 18/18/3
f 2/2/4 19/19/4 20/20/4 3/3/4
f 21/21/5 22/22/5 23/23/5 24/24/5
f 25/25/5 26/26/5 27/27/5 28/28/5
f 29/29/6 30/30/6 31/31/6 32/32/6
f 24/24/5 23/23/5 33/33/5 34/34/5
f 8/8/2 7/7/2 35/35/2 36/36/2
f 6/6/2 16/16/2 37/37/2 7/7/2
f 22/22/5 21/21/5 38/38/5 39/39/5
f 40/40/7 41/41/7 42/42/7 43/43/7
f 44/44/8 45/45/8 46/46/8 47/47/8
f 48/48/9 49/49/9 41/41/9 40/40/9
f 14/14/10 13/13/10 48/50/10 40/51/10
f 50/52/11 51/53/11 52/54/11 53/55/11
f 2/2/1 1/1/1 12/12/1 11/11/1
f 32/32/6 31/31/6 54/56/6 55/57/6
f 56/58/12 32/32/12 55/57/12 57/59/12
f 58/60/5 39/39/5 26/26/5 25/25/5
f 23/23/5 59/61/5 60/62/5 33/33/5
f 3/3/13 20/20/13 61/63/13 17/17/13
f 62/64/8 63/65/8 45/45/8 44/44/8
f 26/26/5 64/66/5 65/67/5 27/27/5
f 66/68/14 29/29/14 32/32/14 56/58/14
f 22/22/5 67/69/5 59/61/5 23/23/5
f 68/70/15 14/14/15 40/51/15 43/71/15
f 7/7/2 37/37/2 69/72/2 35/35/2
f 70/73/2 71/74/2 72/75/2 73/76/2
f 74/77/2 70/73/2 73/76/2 75/78/2
f 15/15/2 10/10/2 70/73/2 74/77/2
f 10/10/2 9/9/2 71/74/2 70/73/2
f 39/39/5 38/38/5 64/66/5 26/26/5
f 19/19/4 2/2/4 11/11/4 76/79/4
f 76/79/4 11/11/4 14/14/4 68/70/4
f 77/80/16 78/81/16 79/82/16 80/83/16
f 81/84/2 82/85/2 83/86/2 84/87/2
f 51/53/11 85/88/11 86/89/11 52/54/11
f 87/90/2 81/84/2 84/87/2 88/91/2
f 88/91/2 84/87/2 16/16/2 15/15/2
f 78/81/17 89/92/17 90/93/17 79/82/17
f 80/83/18 79/82/18 20/20/18 19/19/18
f 91/94/11 92/95/11 93/96/11 53/55/11
f 85/88/11 94/97/11 95/98/11 86/89/11
f 74/77/2 75/78/2 96/99/2 97/100/2
f 92/95/11 98/101/11 99/102/11 93/96/11
f 82/85/2 100/103/2 101/104/2 83/86/2
f 84/87/2 83/86/2 37/37/2 16/16/2
f 53/55/11 93/96/11 102/105/11 50/52/11
f 83/86/2 101/104/2 69/72/2 37/37/2
f 103/106/19 104/107/19 105/108/19 106/109/19
f 107/110/8 47/47/8 46/46/8 108/111/8
f 109/112/20 104/113/20 103/114/20 110/115/20
f 80/83/16 111/116/16 112/117/16 77/80/16
f 113/118/6 114/119/6 115/120/6 116/121/6
f 66/68/21 117/122/21 113/118/21 29/29/21
f 111/116/16 109/112/16 110/115/16 112/117/16
f 93/96/11 99/102/11 118/123/11 102/105/11
f 79/82/22 90/93/22 61/63/22 20/20/22
f 119/124/8 107/110/8 108/111/8 120/125/8
f 86/89/11 95/98/11 121/126/11 122/127/11
f 104/107/23 43/43/23 42/42/23 105/108/23
f 52/54/11 86/89/11 122/127/11 123/128/11
f 68/70/24 43/71/24 104/113/24 109/112/24
f 29/29/6 113/118/6 116/121/6 30/30/6
f 97/100/2 96/99/2 124/129/2 125/130/2
f 117/122/25 126/131/25 114/119/25 113/118/25
f 15/15/2 74/77/2 97/100/2 88/91/2
f 88/91/2 97/100/2 125/130/2 87/90/2
f 53/55/11 52/54/11 123/128/11 91/94/11
f 19/19/18 76/79/18 111/116/18 80/83/18
f 76/79/18 68/70/18 109/112/18 111/116/18
f 57/132/26 60/133/26 18/134/26
f 54/135/27 72/136/27 34/137/27
f 36/138/28 63/139/28 65/140/28
f 49/49/29 27/27/29 62/64/29
f 126/141/30 89/142/30 118/143/30
f 115/144/31 98/145/31 124/146/31
f 100/147/32 121/148/32 120/149/32
f 106/109/33 119/124/33 95/98/33
f 12/12/34 1/1/35 67/69/35 58/60/34
f 9/9/36 5/5/36 38/38/36 21/21/36
f 1/1/35 4/4/37 59/61/37 67/69/35
f 71/74/36 9/9/36 21/21/36 24/24/36
f 17/17/38 61/63/38 66/150/38 56/151/38
f 73/152/39 72/153/39 54/56/39 31/31/39
f 33/33/40 60/62/40 57/59/40 55/57/40
f 4/4/41 18/18/41 60/62/41 59/61/41
f 72/75/36 71/74/36 24/24/36 34/34/36
f 58/60/34 25/25/42 13/13/42 12/12/34
f 64/66/36 38/38/36 5/5/36 8/8/36
f 49/49/43 48/48/43 28/28/43 27/27/43
f 35/154/44 69/155/44 46/46/44 45/45/44
f 25/25/45 28/28/45 48/50/45 13/13/45
f 65/67/36 64/66/36 8/8/36 36/36/36
f 34/34/46 33/33/46 55/57/46 54/56/46
f 63/65/47 62/64/47 27/27/47 65/67/47
f 44/44/48 47/47/49 42/42/49 41/41/48
f 18/18/50 17/17/50 56/156/50 57/157/50
f 75/158/39 73/152/39 31/31/39 30/30/39
f 36/159/44 35/154/44 45/45/44 63/65/44
f 62/64/51 44/44/51 41/41/51 49/49/51
f 51/53/52 50/52/53 77/80/53 112/117/52
f 91/94/54 123/128/54 81/84/54 87/90/54
f 50/52/53 102/105/55 78/81/55 77/80/53
f 92/95/54 91/94/54 87/90/54 125/130/54
f 117/160/56 66/150/56 61/63/56 90/93/56
f 116/121/39 115/120/39 124/161/39 96/162/39
f 114/119/57 126/131/57 118/123/57 99/102/57
f 102/105/58 118/123/58 89/92/58 78/81/58
f 98/101/54 92/95/54 125/130/54 124/129/54
f 112/117/52 110/115/59 85/88/59 51/53/52
f 82/85/54 81/84/54 123/128/54 122/127/54
f 95/98/60 94/97/60 103/106/60 106/109/60
f 108/111/44 46/46/44 69/155/44 101/163/44
f 110/115/61 103/114/61 94/97/61 85/88/61
f 100/103/54 82/85/54 122/127/54 121/126/54
f 115/120/62 114/119/62 99/102/62 98/101/62
f 121/126/63 95/98/63 119/124/63 120/125/63
f 105/108/64 42/42/49 47/47/49 107/110/64
f 126/164/65 117/165/65 90/93/65 89/92/65
f 30/30/39 116/121/39 96/162/39 75/158/39
f 120/125/44 108/111/44 101/163/44 100/166/44
f 106/109/66 105/108/66 107/110/66 119/124/66
f 67/69/5 22/22/5 39/39/5 58/60/5
