# Blender v2.92.0 OBJ File: ''
# www.blender.org
mtllib tankbarrel.mtl
o Cylinder_Cylinder.001
v 0.000000 1.701901 0.000000
v 0.000000 1.701900 9.867561
v 0.060835 1.695909 0.000000
v 0.060835 1.695908 9.867561
v 0.119333 1.678164 0.000000
v 0.119333 1.678163 9.867561
v 0.173245 1.649348 0.000000
v 0.173245 1.649347 9.867561
v 0.220499 1.610567 0.000000
v 0.220499 1.610567 9.867561
v 0.259279 1.563313 0.000000
v 0.259279 1.563313 9.867561
v 0.288095 1.509402 0.000000
v 0.288095 1.509401 9.867561
v 0.305840 1.450904 0.000000
v 0.305840 1.450904 9.867561
v 0.311832 1.390069 -0.000000
v 0.311832 1.390068 9.867561
v 0.305840 1.329233 -0.000000
v 0.305840 1.329233 9.867561
v 0.288095 1.270736 -0.000000
v 0.288095 1.270735 9.867561
v 0.259279 1.216824 -0.000000
v 0.259279 1.216824 9.867561
v 0.220499 1.169570 -0.000000
v 0.220499 1.169570 9.867561
v 0.173245 1.130790 -0.000000
v 0.173245 1.130789 9.867561
v 0.119333 1.101974 -0.000000
v 0.119333 1.101973 9.867561
v 0.060835 1.084229 -0.000000
v 0.060835 1.084228 9.867561
v -0.000000 1.078237 -0.000000
v -0.000000 1.078236 9.867561
v -0.060836 1.084229 -0.000000
v -0.060836 1.084228 9.867561
v -0.119333 1.101974 -0.000000
v -0.119333 1.101973 9.867561
v -0.173245 1.130790 -0.000000
v -0.173245 1.130790 9.867561
v -0.220499 1.169570 -0.000000
v -0.220499 1.169570 9.867561
v -0.259279 1.216824 -0.000000
v -0.259279 1.216824 9.867561
v -0.288095 1.270736 -0.000000
v -0.288095 1.270736 9.867561
v -0.305840 1.329234 -0.000000
v -0.305840 1.329233 9.867561
v -0.311832 1.390069 0.000000
v -0.311832 1.390069 9.867561
v -0.305840 1.450904 0.000000
v -0.305840 1.450904 9.867561
v -0.288095 1.509402 0.000000
v -0.288095 1.509401 9.867561
v -0.259279 1.563314 0.000000
v -0.259279 1.563313 9.867561
v -0.220498 1.610567 0.000000
v -0.220498 1.610567 9.867561
v -0.173244 1.649348 0.000000
v -0.173244 1.649347 9.867561
v -0.119333 1.678164 0.000000
v -0.119333 1.678164 9.867561
v -0.060835 1.695909 0.000000
v -0.060835 1.695909 9.867561
v 0.000000 1.768983 9.955952
v 0.073923 1.761703 9.955952
v 0.145005 1.740140 9.955952
v 0.210514 1.705125 9.955952
v 0.267934 1.658002 9.955952
v 0.315057 1.600582 9.955952
v 0.350072 1.535073 9.955952
v 0.371635 1.463991 9.955952
v 0.378915 1.390068 9.955952
v 0.371635 1.316146 9.955952
v 0.350072 1.245064 9.955952
v 0.315057 1.179554 9.955952
v 0.267934 1.122135 9.955952
v 0.210514 1.075012 9.955952
v 0.145005 1.039996 9.955952
v 0.073923 1.018434 9.955952
v 0.000000 1.011153 9.955952
v -0.073923 1.018434 9.955952
v -0.145005 1.039996 9.955952
v -0.210514 1.075012 9.955952
v -0.267934 1.122135 9.955952
v -0.315057 1.179554 9.955952
v -0.350072 1.245064 9.955952
v -0.371634 1.316146 9.955952
v -0.378915 1.390069 9.955952
v -0.371634 1.463991 9.955952
v -0.350072 1.535073 9.955952
v -0.315056 1.600583 9.955952
v -0.267933 1.658002 9.955952
v -0.210513 1.705125 9.955952
v -0.145004 1.740141 9.955952
v -0.073922 1.761703 9.955952
v 0.000000 1.768983 10.114232
v 0.073923 1.761703 10.114232
v 0.145005 1.740140 10.114232
v 0.210514 1.705125 10.114232
v 0.267934 1.658002 10.114232
v 0.315057 1.600582 10.114232
v 0.350072 1.535073 10.114232
v 0.371635 1.463991 10.114232
v 0.378915 1.390068 10.114232
v 0.371635 1.316146 10.114232
v 0.350072 1.245064 10.114232
v 0.315057 1.179554 10.114232
v 0.267934 1.122135 10.114232
v 0.210514 1.075012 10.114232
v 0.145005 1.039996 10.114232
v 0.073923 1.018434 10.114232
v 0.000000 1.011153 10.114232
v -0.073923 1.018434 10.114232
v -0.145005 1.039996 10.114232
v -0.210514 1.075012 10.114232
v -0.267934 1.122135 10.114232
v -0.315057 1.179554 10.114232
v -0.350072 1.245064 10.114232
v -0.371635 1.316146 10.114232
v -0.378915 1.390069 10.114232
v -0.371634 1.463991 10.114232
v -0.350072 1.535073 10.114232
v -0.315056 1.600583 10.114232
v -0.267933 1.658002 10.114232
v -0.210514 1.705125 10.114232
v -0.145004 1.740141 10.114232
v -0.073922 1.761703 10.114232
v 0.000000 1.609009 10.114231
v 0.042713 1.604802 10.114231
v 0.083785 1.592343 10.114231
v 0.121637 1.572111 10.114231
v 0.154814 1.544883 10.114231
v 0.182042 1.511705 10.114231
v 0.202275 1.473853 10.114231
v 0.214734 1.432781 10.114231
v 0.218941 1.390068 10.114231
v 0.214734 1.347355 10.114231
v 0.202275 1.306283 10.114231
v 0.182042 1.268431 10.114231
v 0.154814 1.235254 10.114231
v 0.121637 1.208026 10.114231
v 0.083785 1.187794 10.114231
v 0.042713 1.175335 10.114231
v 0.000000 1.171128 10.114231
v -0.042713 1.175335 10.114231
v -0.083785 1.187794 10.114231
v -0.121637 1.208026 10.114231
v -0.154814 1.235254 10.114231
v -0.182042 1.268432 10.114231
v -0.202275 1.306283 10.114231
v -0.214733 1.347355 10.114231
v -0.218940 1.390068 10.114231
v -0.214733 1.432782 10.114231
v -0.202274 1.473853 10.114231
v -0.182042 1.511705 10.114231
v -0.154814 1.544883 10.114231
v -0.121636 1.572111 10.114231
v -0.083784 1.592343 10.114231
v -0.042713 1.604802 10.114231
v -0.000002 1.609009 7.925396
v 0.042712 1.604802 7.925396
v 0.083783 1.592343 7.925396
v 0.121635 1.572111 7.925396
v 0.154813 1.544883 7.925396
v 0.182041 1.511705 7.925396
v 0.202273 1.473853 7.925396
v 0.214732 1.432781 7.925396
v 0.218939 1.390068 7.925396
v 0.214732 1.347355 7.925396
v 0.202273 1.306283 7.925396
v 0.182041 1.268432 7.925396
v 0.154813 1.235254 7.925396
v 0.121635 1.208026 7.925396
v 0.083783 1.187794 7.925396
v 0.042711 1.175335 7.925396
v -0.000002 1.171128 7.925396
v -0.042715 1.175335 7.925396
v -0.083787 1.187794 7.925396
v -0.121639 1.208026 7.925396
v -0.154816 1.235254 7.925396
v -0.182044 1.268432 7.925396
v -0.202276 1.306284 7.925396
v -0.214735 1.347355 7.925396
v -0.218942 1.390069 7.925396
v -0.214735 1.432782 7.925396
v -0.202276 1.473853 7.925396
v -0.182044 1.511705 7.925396
v -0.154816 1.544883 7.925396
v -0.121638 1.572111 7.925396
v -0.083786 1.592343 7.925396
v -0.042714 1.604802 7.925396
vt 1.000000 0.500000
vt 1.000000 1.000000
vt 0.968750 1.000000
vt 0.968750 0.500000
vt 0.937500 1.000000
vt 0.937500 0.500000
vt 0.906250 1.000000
vt 0.906250 0.500000
vt 0.875000 1.000000
vt 0.875000 0.500000
vt 0.843750 1.000000
vt 0.843750 0.500000
vt 0.812500 1.000000
vt 0.812500 0.500000
vt 0.781250 1.000000
vt 0.781250 0.500000
vt 0.750000 1.000000
vt 0.750000 0.500000
vt 0.718750 1.000000
vt 0.718750 0.500000
vt 0.687500 1.000000
vt 0.687500 0.500000
vt 0.656250 1.000000
vt 0.656250 0.500000
vt 0.625000 1.000000
vt 0.625000 0.500000
vt 0.593750 1.000000
vt 0.593750 0.500000
vt 0.562500 1.000000
vt 0.562500 0.500000
vt 0.531250 1.000000
vt 0.531250 0.500000
vt 0.500000 1.000000
vt 0.500000 0.500000
vt 0.468750 1.000000
vt 0.468750 0.500000
vt 0.437500 1.000000
vt 0.437500 0.500000
vt 0.406250 1.000000
vt 0.406250 0.500000
vt 0.375000 1.000000
vt 0.375000 0.500000
vt 0.343750 1.000000
vt 0.343750 0.500000
vt 0.312500 1.000000
vt 0.312500 0.500000
vt 0.281250 1.000000
vt 0.281250 0.500000
vt 0.250000 1.000000
vt 0.250000 0.500000
vt 0.218750 1.000000
vt 0.218750 0.500000
vt 0.187500 1.000000
vt 0.187500 0.500000
vt 0.156250 1.000000
vt 0.156250 0.500000
vt 0.125000 1.000000
vt 0.125000 0.500000
vt 0.093750 1.000000
vt 0.093750 0.500000
vt 0.062500 1.000000
vt 0.062500 0.500000
vt 0.812500 1.000000
vt 0.781250 1.000000
vt 0.031250 1.000000
vt 0.031250 0.500000
vt 0.000000 1.000000
vt 0.000000 0.500000
vt 0.750000 0.490000
vt 0.796822 0.485388
vt 0.841844 0.471731
vt 0.883337 0.449553
vt 0.919706 0.419706
vt 0.949553 0.383337
vt 0.971731 0.341844
vt 0.985388 0.296822
vt 0.990000 0.250000
vt 0.985388 0.203178
vt 0.971731 0.158156
vt 0.949553 0.116663
vt 0.919706 0.080294
vt 0.883337 0.050447
vt 0.841844 0.028269
vt 0.796822 0.014612
vt 0.750000 0.010000
vt 0.703178 0.014612
vt 0.658156 0.028269
vt 0.616663 0.050447
vt 0.580294 0.080294
vt 0.550447 0.116663
vt 0.528269 0.158156
vt 0.514611 0.203179
vt 0.510000 0.250000
vt 0.514612 0.296822
vt 0.528269 0.341844
vt 0.550447 0.383337
vt 0.580295 0.419706
vt 0.616663 0.449553
vt 0.658156 0.471731
vt 0.703179 0.485389
vt 0.437500 1.000000
vt 0.468750 1.000000
vt 0.468750 1.000000
vt 0.437500 1.000000
vt 0.531250 1.000000
vt 0.500000 1.000000
vt 0.250000 1.000000
vt 0.218750 1.000000
vt 0.937500 1.000000
vt 0.906250 1.000000
vt 0.656250 1.000000
vt 0.625000 1.000000
vt 0.375000 1.000000
vt 0.343750 1.000000
vt 0.093750 1.000000
vt 0.062500 1.000000
vt 0.750000 1.000000
vt 0.187500 1.000000
vt 0.875000 1.000000
vt 0.593750 1.000000
vt 0.312500 1.000000
vt 0.031250 1.000000
vt 0.718750 1.000000
vt 0.156250 1.000000
vt 0.843750 1.000000
vt 0.562500 1.000000
vt 0.281250 1.000000
vt 1.000000 1.000000
vt 0.968750 1.000000
vt 0.000000 1.000000
vt 0.687500 1.000000
vt 0.406250 1.000000
vt 0.125000 1.000000
vt 0.343750 1.000000
vt 0.375000 1.000000
vt 0.375000 1.000000
vt 0.343750 1.000000
vt 0.875000 1.000000
vt 0.843750 1.000000
vt 0.031250 1.000000
vt 0.000000 1.000000
vt 0.406250 1.000000
vt 0.812500 1.000000
vt 0.781250 1.000000
vt 0.750000 1.000000
vt 0.312500 1.000000
vt 0.718750 1.000000
vt 0.281250 1.000000
vt 0.687500 1.000000
vt 0.250000 1.000000
vt 0.656250 1.000000
vt 0.218750 1.000000
vt 0.625000 1.000000
vt 0.187500 1.000000
vt 0.593750 1.000000
vt 0.156250 1.000000
vt 0.562500 1.000000
vt 1.000000 1.000000
vt 0.968750 1.000000
vt 0.125000 1.000000
vt 0.531250 1.000000
vt 0.937500 1.000000
vt 0.093750 1.000000
vt 0.500000 1.000000
vt 0.906250 1.000000
vt 0.062500 1.000000
vt 0.250000 1.000000
vt 0.281250 1.000000
vt 0.281250 1.000000
vt 0.250000 1.000000
vt 0.781250 1.000000
vt 0.750000 1.000000
vt 0.312500 1.000000
vt 0.718750 1.000000
vt 0.687500 1.000000
vt 0.656250 1.000000
vt 0.218750 1.000000
vt 0.625000 1.000000
vt 0.187500 1.000000
vt 0.593750 1.000000
vt 0.156250 1.000000
vt 0.562500 1.000000
vt 1.000000 1.000000
vt 0.968750 1.000000
vt 0.125000 1.000000
vt 0.531250 1.000000
vt 0.937500 1.000000
vt 0.093750 1.000000
vt 0.500000 1.000000
vt 0.906250 1.000000
vt 0.062500 1.000000
vt 0.468750 1.000000
vt 0.875000 1.000000
vt 0.031250 1.000000
vt 0.437500 1.000000
vt 0.843750 1.000000
vt 0.000000 1.000000
vt 0.406250 1.000000
vt 0.812500 1.000000
vt 0.296822 0.485388
vt 0.250000 0.490000
vt 0.203179 0.485389
vt 0.158156 0.471731
vt 0.116663 0.449553
vt 0.080295 0.419706
vt 0.050447 0.383337
vt 0.028269 0.341844
vt 0.014612 0.296822
vt 0.010000 0.250000
vt 0.014611 0.203179
vt 0.028269 0.158156
vt 0.050447 0.116663
vt 0.080294 0.080294
vt 0.116663 0.050447
vt 0.158156 0.028269
vt 0.203178 0.014612
vt 0.250000 0.010000
vt 0.296822 0.014612
vt 0.341844 0.028269
vt 0.383337 0.050447
vt 0.419706 0.080294
vt 0.449553 0.116663
vt 0.471731 0.158156
vt 0.485388 0.203178
vt 0.490000 0.250000
vt 0.485388 0.296822
vt 0.471731 0.341844
vt 0.449553 0.383337
vt 0.419706 0.419706
vt 0.383337 0.449553
vt 0.341844 0.471731
vt 0.687500 1.000000
vt 0.656250 1.000000
vt 0.218750 1.000000
vt 0.625000 1.000000
vt 0.187500 1.000000
vt 0.593750 1.000000
vt 0.156250 1.000000
vt 0.562500 1.000000
vt 1.000000 1.000000
vt 0.968750 1.000000
vt 0.125000 1.000000
vt 0.531250 1.000000
vt 0.937500 1.000000
vt 0.093750 1.000000
vt 0.500000 1.000000
vt 0.906250 1.000000
vt 0.062500 1.000000
vt 0.468750 1.000000
vt 0.875000 1.000000
vt 0.031250 1.000000
vt 0.437500 1.000000
vt 0.843750 1.000000
vt 0.000000 1.000000
vt 0.406250 1.000000
vt 0.812500 1.000000
vt 0.375000 1.000000
vt 0.781250 1.000000
vt 0.343750 1.000000
vt 0.750000 1.000000
vt 0.312500 1.000000
vt 0.718750 1.000000
vn 0.0980 0.9952 0.0000
vn 0.2903 0.9569 0.0000
vn 0.4714 0.8819 0.0000
vn 0.6344 0.7730 0.0000
vn 0.7730 0.6344 0.0000
vn 0.8819 0.4714 0.0000
vn 0.9569 0.2903 0.0000
vn 0.9952 0.0980 0.0000
vn 0.9952 -0.0980 -0.0000
vn 0.9569 -0.2903 -0.0000
vn 0.8819 -0.4714 -0.0000
vn 0.7730 -0.6344 -0.0000
vn 0.6344 -0.7730 -0.0000
vn 0.4714 -0.8819 -0.0000
vn 0.2903 -0.9569 -0.0000
vn 0.0980 -0.9952 -0.0000
vn -0.0980 -0.9952 -0.0000
vn -0.2903 -0.9569 -0.0000
vn -0.4714 -0.8819 -0.0000
vn -0.6344 -0.7730 -0.0000
vn -0.7730 -0.6344 -0.0000
vn -0.8819 -0.4714 -0.0000
vn -0.9569 -0.2903 -0.0000
vn -0.9952 -0.0980 -0.0000
vn -0.9952 0.0980 0.0000
vn -0.9569 0.2903 0.0000
vn -0.8819 0.4714 0.0000
vn -0.7730 0.6344 0.0000
vn -0.6344 0.7730 0.0000
vn -0.4714 0.8819 0.0000
vn 0.7636 0.2316 -0.6027
vn -0.2903 0.9569 0.0000
vn -0.0980 0.9952 0.0000
vn -0.0000 0.0000 -1.0000
vn 0.0782 -0.7941 -0.6027
vn -0.7941 0.0782 -0.6027
vn 0.3762 0.7037 -0.6027
vn 0.6168 -0.5062 -0.6027
vn -0.6168 -0.5062 -0.6027
vn -0.3762 0.7037 -0.6027
vn 0.7941 0.0782 -0.6027
vn -0.0782 -0.7941 -0.6027
vn -0.7636 0.2316 -0.6027
vn 0.5062 0.6168 -0.6027
vn 0.5062 -0.6168 -0.6027
vn -0.7037 -0.3762 -0.6027
vn -0.2316 0.7636 -0.6027
vn 0.7941 -0.0782 -0.6027
vn -0.2316 -0.7636 -0.6027
vn -0.7037 0.3762 -0.6027
vn 0.6168 0.5062 -0.6027
vn 0.3762 -0.7037 -0.6027
vn -0.7636 -0.2316 -0.6027
vn 0.0782 0.7941 -0.6027
vn -0.0782 0.7941 -0.6027
vn 0.7636 -0.2316 -0.6027
vn -0.3762 -0.7037 -0.6027
vn -0.6168 0.5062 -0.6027
vn 0.7037 0.3762 -0.6027
vn 0.2316 -0.7636 -0.6027
vn -0.7941 -0.0782 -0.6027
vn 0.2316 0.7636 -0.6027
vn 0.7037 -0.3762 -0.6027
vn -0.5062 -0.6168 -0.6027
vn -0.5062 0.6168 -0.6027
vn 0.0000 0.0000 1.0000
usemtl None
s off
f 1/1/1 2/2/1 4/3/1 3/4/1
f 3/4/2 4/3/2 6/5/2 5/6/2
f 5/6/3 6/5/3 8/7/3 7/8/3
f 7/8/4 8/7/4 10/9/4 9/10/4
f 9/10/5 10/9/5 12/11/5 11/12/5
f 11/12/6 12/11/6 14/13/6 13/14/6
f 13/14/7 14/13/7 16/15/7 15/16/7
f 15/16/8 16/15/8 18/17/8 17/18/8
f 17/18/9 18/17/9 20/19/9 19/20/9
f 19/20/10 20/19/10 22/21/10 21/22/10
f 21/22/11 22/21/11 24/23/11 23/24/11
f 23/24/12 24/23/12 26/25/12 25/26/12
f 25/26/13 26/25/13 28/27/13 27/28/13
f 27/28/14 28/27/14 30/29/14 29/30/14
f 29/30/15 30/29/15 32/31/15 31/32/15
f 31/32/16 32/31/16 34/33/16 33/34/16
f 33/34/17 34/33/17 36/35/17 35/36/17
f 35/36/18 36/35/18 38/37/18 37/38/18
f 37/38/19 38/37/19 40/39/19 39/40/19
f 39/40/20 40/39/20 42/41/20 41/42/20
f 41/42/21 42/41/21 44/43/21 43/44/21
f 43/44/22 44/43/22 46/45/22 45/46/22
f 45/46/23 46/45/23 48/47/23 47/48/23
f 47/48/24 48/47/24 50/49/24 49/50/24
f 49/50/25 50/49/25 52/51/25 51/52/25
f 51/52/26 52/51/26 54/53/26 53/54/26
f 53/54/27 54/53/27 56/55/27 55/56/27
f 55/56/28 56/55/28 58/57/28 57/58/28
f 57/58/29 58/57/29 60/59/29 59/60/29
f 59/60/30 60/59/30 62/61/30 61/62/30
f 16/15/31 14/13/31 71/63/31 72/64/31
f 61/62/32 62/61/32 64/65/32 63/66/32
f 63/66/33 64/65/33 2/67/33 1/68/33
f 1/69/34 3/70/34 5/71/34 7/72/34 9/73/34 11/74/34 13/75/34 15/76/34 17/77/34 19/78/34 21/79/34 23/80/34 25/81/34 27/82/34 29/83/34 31/84/34 33/85/34 35/86/34 37/87/34 39/88/34 41/89/34 43/90/34 45/91/34 47/92/34 49/93/34 51/94/34 53/95/34 55/96/34 57/97/34 59/98/34 61/99/34 63/100/34
f 83/101/18 82/102/18 114/103/18 115/104/18
f 34/33/35 32/31/35 80/105/35 81/106/35
f 52/51/36 50/49/36 89/107/36 90/108/36
f 8/7/37 6/5/37 67/109/37 68/110/37
f 26/25/38 24/23/38 76/111/38 77/112/38
f 44/43/39 42/41/39 85/113/39 86/114/39
f 62/61/40 60/59/40 94/115/40 95/116/40
f 18/17/41 16/15/41 72/64/41 73/117/41
f 36/35/42 34/33/42 81/106/42 82/102/42
f 54/53/43 52/51/43 90/108/43 91/118/43
f 10/9/44 8/7/44 68/110/44 69/119/44
f 28/27/45 26/25/45 77/112/45 78/120/45
f 46/45/46 44/43/46 86/114/46 87/121/46
f 64/65/47 62/61/47 95/116/47 96/122/47
f 20/19/48 18/17/48 73/117/48 74/123/48
f 38/37/49 36/35/49 82/102/49 83/101/49
f 56/55/50 54/53/50 91/118/50 92/124/50
f 12/11/51 10/9/51 69/119/51 70/125/51
f 30/29/52 28/27/52 78/120/52 79/126/52
f 48/47/53 46/45/53 87/121/53 88/127/53
f 4/3/54 2/2/54 65/128/54 66/129/54
f 2/67/55 64/65/55 96/122/55 65/130/55
f 22/21/56 20/19/56 74/123/56 75/131/56
f 40/39/57 38/37/57 83/101/57 84/132/57
f 58/57/58 56/55/58 92/124/58 93/133/58
f 14/13/59 12/11/59 70/125/59 71/63/59
f 32/31/60 30/29/60 79/126/60 80/105/60
f 50/49/61 48/47/61 88/127/61 89/107/61
f 6/5/62 4/3/62 66/129/62 67/109/62
f 24/23/63 22/21/63 75/131/63 76/111/63
f 42/41/64 40/39/64 84/132/64 85/113/64
f 60/59/65 58/57/65 93/133/65 94/115/65
f 118/134/66 117/135/66 149/136/66 150/137/66
f 70/125/5 69/119/5 101/138/5 102/139/5
f 65/130/33 96/122/33 128/140/33 97/141/33
f 84/132/19 83/101/19 115/104/19 116/142/19
f 71/63/6 70/125/6 102/139/6 103/143/6
f 85/113/20 84/132/20 116/142/20 117/135/20
f 72/64/7 71/63/7 103/143/7 104/144/7
f 86/114/21 85/113/21 117/135/21 118/134/21
f 73/117/8 72/64/8 104/144/8 105/145/8
f 87/121/22 86/114/22 118/134/22 119/146/22
f 74/123/9 73/117/9 105/145/9 106/147/9
f 88/127/23 87/121/23 119/146/23 120/148/23
f 75/131/10 74/123/10 106/147/10 107/149/10
f 89/107/24 88/127/24 120/148/24 121/150/24
f 76/111/11 75/131/11 107/149/11 108/151/11
f 90/108/25 89/107/25 121/150/25 122/152/25
f 77/112/12 76/111/12 108/151/12 109/153/12
f 91/118/26 90/108/26 122/152/26 123/154/26
f 78/120/13 77/112/13 109/153/13 110/155/13
f 92/124/27 91/118/27 123/154/27 124/156/27
f 79/126/14 78/120/14 110/155/14 111/157/14
f 66/129/1 65/128/1 97/158/1 98/159/1
f 93/133/28 92/124/28 124/156/28 125/160/28
f 80/105/15 79/126/15 111/157/15 112/161/15
f 67/109/2 66/129/2 98/159/2 99/162/2
f 94/115/29 93/133/29 125/160/29 126/163/29
f 81/106/16 80/105/16 112/161/16 113/164/16
f 68/110/3 67/109/3 99/162/3 100/165/3
f 95/116/30 94/115/30 126/163/30 127/166/30
f 82/102/17 81/106/17 113/164/17 114/103/17
f 69/119/4 68/110/4 100/165/4 101/138/4
f 96/122/32 95/116/32 127/166/32 128/140/32
f 153/167/8 152/168/8 184/169/8 185/170/8
f 105/145/66 104/144/66 136/171/66 137/172/66
f 119/146/66 118/134/66 150/137/66 151/173/66
f 106/147/66 105/145/66 137/172/66 138/174/66
f 120/148/66 119/146/66 151/173/66 152/168/66
f 107/149/66 106/147/66 138/174/66 139/175/66
f 121/150/66 120/148/66 152/168/66 153/167/66
f 108/151/66 107/149/66 139/175/66 140/176/66
f 122/152/66 121/150/66 153/167/66 154/177/66
f 109/153/66 108/151/66 140/176/66 141/178/66
f 123/154/66 122/152/66 154/177/66 155/179/66
f 110/155/66 109/153/66 141/178/66 142/180/66
f 124/156/66 123/154/66 155/179/66 156/181/66
f 111/157/66 110/155/66 142/180/66 143/182/66
f 98/159/66 97/158/66 129/183/66 130/184/66
f 125/160/66 124/156/66 156/181/66 157/185/66
f 112/161/66 111/157/66 143/182/66 144/186/66
f 99/162/66 98/159/66 130/184/66 131/187/66
f 126/163/66 125/160/66 157/185/66 158/188/66
f 113/164/66 112/161/66 144/186/66 145/189/66
f 100/165/66 99/162/66 131/187/66 132/190/66
f 127/166/66 126/163/66 158/188/66 159/191/66
f 114/103/66 113/164/66 145/189/66 146/192/66
f 101/138/66 100/165/66 132/190/66 133/193/66
f 128/140/66 127/166/66 159/191/66 160/194/66
f 115/104/66 114/103/66 146/192/66 147/195/66
f 102/139/66 101/138/66 133/193/66 134/196/66
f 97/141/66 128/140/66 160/194/66 129/197/66
f 116/142/66 115/104/66 147/195/66 148/198/66
f 103/143/66 102/139/66 134/196/66 135/199/66
f 117/135/66 116/142/66 148/198/66 149/136/66
f 104/144/66 103/143/66 135/199/66 136/171/66
f 162/200/66 161/201/66 192/202/66 191/203/66 190/204/66 189/205/66 188/206/66 187/207/66 186/208/66 185/209/66 184/210/66 183/211/66 182/212/66 181/213/66 180/214/66 179/215/66 178/216/66 177/217/66 176/218/66 175/219/66 174/220/66 173/221/66 172/222/66 171/223/66 170/224/66 169/225/66 168/226/66 167/227/66 166/228/66 165/229/66 164/230/66 163/231/66
f 140/176/27 139/175/27 171/232/27 172/233/27
f 154/177/9 153/167/9 185/170/9 186/234/9
f 141/178/28 140/176/28 172/233/28 173/235/28
f 155/179/10 154/177/10 186/234/10 187/236/10
f 142/180/29 141/178/29 173/235/29 174/237/29
f 156/181/11 155/179/11 187/236/11 188/238/11
f 143/182/30 142/180/30 174/237/30 175/239/30
f 130/184/17 129/183/17 161/240/17 162/241/17
f 157/185/12 156/181/12 188/238/12 189/242/12
f 144/186/32 143/182/32 175/239/32 176/243/32
f 131/187/18 130/184/18 162/241/18 163/244/18
f 158/188/13 157/185/13 189/242/13 190/245/13
f 145/189/33 144/186/33 176/243/33 177/246/33
f 132/190/19 131/187/19 163/244/19 164/247/19
f 159/191/14 158/188/14 190/245/14 191/248/14
f 146/192/1 145/189/1 177/246/1 178/249/1
f 133/193/20 132/190/20 164/247/20 165/250/20
f 160/194/15 159/191/15 191/248/15 192/251/15
f 147/195/2 146/192/2 178/249/2 179/252/2
f 134/196/21 133/193/21 165/250/21 166/253/21
f 129/197/16 160/194/16 192/251/16 161/254/16
f 148/198/3 147/195/3 179/252/3 180/255/3
f 135/199/22 134/196/22 166/253/22 167/256/22
f 149/136/4 148/198/4 180/255/4 181/257/4
f 136/171/23 135/199/23 167/256/23 168/258/23
f 150/137/5 149/136/5 181/257/5 182/259/5
f 137/172/24 136/171/24 168/258/24 169/260/24
f 151/173/6 150/137/6 182/259/6 183/261/6
f 138/174/25 137/172/25 169/260/25 170/262/25
f 152/168/7 151/173/7 183/261/7 184/169/7
f 139/175/26 138/174/26 170/262/26 171/232/26
