# Blender v2.92.0 OBJ File: ''
# www.blender.org
mtllib BTRATGMTurret.mtl
o Cube_Cube.001
v -0.720964 -0.381547 0.720964
v -0.720964 3.900951 0.720964
v -0.720964 -0.381547 -0.720964
v -0.720964 3.900951 -0.720964
v 0.720964 -0.381547 0.720964
v 0.720964 3.900951 0.720964
v 0.720964 -0.381547 -0.720964
v 0.720964 3.900951 -0.720964
v -0.552741 1.527553 -0.720964
v -0.552741 1.527553 0.720964
v -0.552741 3.900951 0.720964
v -0.552741 3.900951 -0.720964
v 0.552741 1.527553 0.720964
v 0.552741 1.527553 -0.720964
v 0.552741 3.900951 -0.720964
v 0.552741 3.900951 0.720964
vt 0.375000 0.000000
vt 0.625000 0.000000
vt 0.625000 0.250000
vt 0.375000 0.250000
vt 0.375000 0.500000
vt 0.625000 0.500000
vt 0.625000 0.750000
vt 0.375000 0.750000
vt 0.125000 0.500000
vt 0.125000 0.750000
vt 0.617463 0.179095
vt 0.617463 0.070905
vt 0.375000 0.070905
vt 0.375000 0.179095
vt 0.375000 0.570905
vt 0.375000 0.679095
vt 0.617463 0.679096
vt 0.617463 0.570905
vt 0.125000 0.570905
vt 0.125000 0.679095
vt 0.625000 0.279166
vt 0.486448 0.279166
vt 0.486448 0.470834
vt 0.625000 0.470834
vt 0.625000 0.970834
vt 0.625000 1.000000
vt 0.375000 1.000000
vt 0.625000 0.779166
vt 0.486448 0.779166
vt 0.486448 0.970834
vt 0.875000 0.500000
vt 0.875000 0.750000
vt 0.845834 0.750000
vt 0.845834 0.500000
vt 0.654166 0.500000
vt 0.654166 0.750000
vn -1.0000 0.0000 0.0000
vn 1.0000 0.0000 0.0000
vn 0.0000 -1.0000 0.0000
vn 0.0000 1.0000 0.0000
vn 0.0000 0.0000 -1.0000
vn 0.0000 0.0000 1.0000
usemtl None
s off
f 1/1/1 2/2/1 4/3/1 3/4/1
f 7/5/2 8/6/2 6/7/2 5/8/2
f 3/9/3 7/5/3 5/8/3 1/10/3
f 12/11/2 11/12/2 10/13/2 9/14/2
f 14/15/1 13/16/1 16/17/1 15/18/1
f 9/19/4 10/20/4 13/16/4 14/15/4
f 8/6/5 7/5/5 3/4/5 4/3/5 12/21/5 9/22/5 14/23/5 15/24/5
f 11/25/6 2/26/6 1/27/6 5/8/6 6/7/6 16/28/6 13/29/6 10/30/6
f 4/31/4 2/32/4 11/33/4 12/34/4
f 6/7/4 8/6/4 15/35/4 16/36/4
